<?xml version="1.0" encoding="utf-8"?><!-- Uploaded to: SVG Repo, www.svgrepo.com, Generator: SVG Repo Mixer Tools -->
<svg fill="#000000" width="800px" height="800px" viewBox="0 0 24 24" id="cc541d40-1559-4a1e-88c1-88e436ac9d5e" data-name="Livello 1" xmlns="http://www.w3.org/2000/svg"><title>prime</title><path id="b96fa21a-bec9-4187-a458-5f9c8b3df686" data-name="settings" d="M24,14V10H20.77a8.94,8.94,0,0,0-1.16-2.78l3-3L19.78,1.39l-3,3A8.94,8.94,0,0,0,14,3.23V0H10V3.23A8.94,8.94,0,0,0,7.22,4.39l-3-3L1.39,4.22l3,3A8.94,8.94,0,0,0,3.23,10H0v4H3.23a8.94,8.94,0,0,0,1.16,2.78l-3,3,2.83,2.83,3-3A8.94,8.94,0,0,0,10,20.77V24h4V20.77a8.94,8.94,0,0,0,2.78-1.16l3,3,2.83-2.83-3-3A8.94,8.94,0,0,0,20.77,14H24ZM12,16a4,4,0,1,1,4-4A4,4,0,0,1,12,16Z"/></svg>